<svg xmlns="http://www.w3.org/2000/svg" xmlns:xlink="http://www.w3.org/1999/xlink" width="150" zoomAndPan="magnify" viewBox="0 0 112.5 37.5" height="50" preserveAspectRatio="xMidYMid meet" version="1.0"><defs><g/><clipPath id="91fb814769"><path d="M 0.492188 0 L 111.511719 0 L 111.511719 37.007812 L 0.492188 37.007812 Z M 0.492188 0 " clip-rule="nonzero"/></clipPath><clipPath id="8481865efe"><path d="M 0.492188 0 L 41 0 L 41 36.265625 L 0.492188 36.265625 Z M 0.492188 0 " clip-rule="nonzero"/></clipPath></defs><g clip-path="url(#91fb814769)"><path fill="#ffffff" d="M 0.492188 0 L 111.511719 0 L 111.511719 37.007812 L 0.492188 37.007812 Z M 0.492188 0 " fill-opacity="1" fill-rule="nonzero"/><path fill="#ffffff" d="M 0.492188 0 L 111.511719 0 L 111.511719 37.007812 L 0.492188 37.007812 Z M 0.492188 0 " fill-opacity="1" fill-rule="nonzero"/></g><path fill="#c8c6c6" d="M 20.023438 28.019531 L 19.863281 27.941406 L 19.734375 27.878906 L 19.578125 27.796875 L 19.449219 27.730469 L 19.296875 27.648438 L 19.171875 27.582031 L 19.015625 27.492188 L 18.894531 27.425781 L 18.738281 27.332031 L 18.625 27.265625 L 18.460938 27.160156 L 18.359375 27.097656 C 18.285156 27.050781 18.210938 27.003906 18.140625 26.957031 L 18.066406 26.910156 C 17.992188 26.859375 17.914062 26.804688 17.839844 26.753906 L 17.746094 26.6875 C 17.691406 26.648438 17.636719 26.613281 17.585938 26.574219 L 17.480469 26.496094 L 17.335938 26.386719 C 17.296875 26.363281 17.261719 26.332031 17.226562 26.308594 L 17.085938 26.199219 L 16.980469 26.113281 L 16.84375 26.003906 L 16.738281 25.914062 L 16.605469 25.804688 L 16.5 25.714844 C 16.457031 25.675781 16.414062 25.632812 16.371094 25.597656 L 16.269531 25.507812 C 16.25 25.488281 16.230469 25.46875 16.210938 25.453125 C 15.054688 26.007812 13.921875 26.996094 13.007812 28.25 C 12.046875 29.570312 11.441406 31.023438 11.300781 32.347656 C 11.171875 33.617188 11.492188 34.605469 12.203125 35.121094 C 12.914062 35.640625 13.957031 35.640625 15.128906 35.125 C 16.347656 34.589844 17.546875 33.566406 18.511719 32.246094 C 19.476562 30.921875 20.09375 29.425781 20.222656 28.113281 L 20.148438 28.078125 Z M 20.023438 28.019531 " fill-opacity="1" fill-rule="nonzero"/><path fill="#c8c6c6" d="M 37.488281 20.941406 C 37.296875 20.789062 37.082031 20.675781 36.847656 20.601562 C 36.796875 20.585938 36.746094 20.574219 36.691406 20.5625 L 36.640625 20.554688 C 36.605469 20.546875 36.566406 20.539062 36.53125 20.535156 L 36.46875 20.527344 C 36.4375 20.527344 36.402344 20.523438 36.367188 20.519531 L 36.304688 20.519531 C 36.269531 20.519531 36.238281 20.519531 36.203125 20.519531 L 36.136719 20.519531 C 36.101562 20.519531 36.066406 20.527344 36.03125 20.53125 L 35.96875 20.535156 C 35.925781 20.542969 35.886719 20.550781 35.84375 20.558594 L 35.796875 20.566406 C 35.742188 20.578125 35.683594 20.59375 35.625 20.609375 C 35.617188 20.609375 35.609375 20.613281 35.601562 20.617188 C 35.554688 20.628906 35.503906 20.644531 35.457031 20.664062 L 35.398438 20.683594 C 35.359375 20.699219 35.320312 20.714844 35.285156 20.730469 L 35.21875 20.757812 C 35.183594 20.777344 35.148438 20.792969 35.113281 20.808594 L 35.046875 20.84375 C 35.011719 20.863281 34.976562 20.882812 34.941406 20.902344 L 34.871094 20.941406 L 34.765625 21.003906 L 34.703125 21.046875 C 34.664062 21.070312 34.628906 21.09375 34.59375 21.121094 C 34.574219 21.132812 34.554688 21.148438 34.535156 21.164062 C 34.492188 21.191406 34.453125 21.222656 34.414062 21.253906 L 34.367188 21.292969 C 34.253906 21.378906 34.144531 21.476562 34.035156 21.582031 L 33.992188 21.621094 C 33.953125 21.660156 33.910156 21.699219 33.871094 21.738281 L 33.816406 21.796875 C 33.78125 21.832031 33.746094 21.871094 33.714844 21.90625 L 33.652344 21.972656 C 33.621094 22.011719 33.589844 22.046875 33.554688 22.085938 L 33.496094 22.15625 C 33.464844 22.195312 33.433594 22.234375 33.402344 22.273438 L 33.34375 22.351562 C 33.308594 22.390625 33.277344 22.429688 33.25 22.472656 C 33.230469 22.5 33.210938 22.523438 33.191406 22.550781 C 33.160156 22.59375 33.128906 22.640625 33.097656 22.6875 L 33.046875 22.757812 C 33.007812 22.8125 32.972656 22.867188 32.9375 22.921875 L 32.90625 22.96875 C 32.859375 23.042969 32.8125 23.117188 32.765625 23.195312 C 32.757812 23.210938 32.75 23.222656 32.742188 23.238281 C 32.707031 23.300781 32.667969 23.363281 32.632812 23.425781 C 32.617188 23.453125 32.605469 23.480469 32.589844 23.507812 C 32.5625 23.558594 32.535156 23.613281 32.507812 23.664062 C 32.492188 23.695312 32.476562 23.726562 32.457031 23.761719 C 32.433594 23.808594 32.410156 23.859375 32.382812 23.910156 L 32.335938 24.015625 L 32.265625 24.164062 C 32.25 24.199219 32.234375 24.238281 32.21875 24.273438 L 32.152344 24.429688 L 32.109375 24.535156 L 32.042969 24.699219 L 32.003906 24.804688 C 31.980469 24.867188 31.960938 24.925781 31.9375 24.988281 C 31.929688 25.019531 31.917969 25.046875 31.90625 25.078125 C 31.875 25.171875 31.84375 25.265625 31.816406 25.359375 C 31.449219 26.550781 31.300781 27.757812 31.390625 28.847656 C 31.527344 30.578125 32.238281 31.800781 33.289062 32.125 C 34.132812 32.382812 35.113281 32.050781 36.058594 31.183594 C 37.039062 30.285156 37.839844 28.925781 38.324219 27.363281 C 38.761719 25.949219 38.886719 24.496094 38.675781 23.273438 C 38.492188 22.214844 38.070312 21.398438 37.488281 20.941406 Z M 37.488281 20.941406 " fill-opacity="1" fill-rule="nonzero"/><path fill="#f7f6f2" d="M 37.589844 20.878906 C 37.410156 20.746094 37.214844 20.652344 37.003906 20.589844 C 36.957031 20.578125 36.90625 20.566406 36.859375 20.554688 L 36.808594 20.546875 L 36.710938 20.53125 L 36.652344 20.527344 C 36.621094 20.527344 36.589844 20.519531 36.558594 20.519531 L 36.503906 20.519531 C 36.472656 20.519531 36.441406 20.519531 36.40625 20.519531 L 36.347656 20.519531 C 36.3125 20.519531 36.28125 20.523438 36.246094 20.527344 L 36.191406 20.535156 C 36.152344 20.539062 36.113281 20.542969 36.078125 20.550781 L 36.035156 20.558594 C 35.984375 20.570312 35.929688 20.582031 35.878906 20.59375 L 35.855469 20.601562 C 35.808594 20.613281 35.765625 20.625 35.71875 20.640625 L 35.667969 20.660156 C 35.632812 20.671875 35.597656 20.683594 35.5625 20.699219 L 35.503906 20.722656 C 35.46875 20.738281 35.4375 20.75 35.40625 20.765625 L 35.34375 20.796875 L 35.246094 20.84375 L 35.183594 20.875 L 35.085938 20.929688 L 35.027344 20.96875 L 34.925781 21.03125 L 34.871094 21.066406 C 34.835938 21.089844 34.800781 21.117188 34.761719 21.144531 L 34.71875 21.175781 C 34.617188 21.253906 34.511719 21.332031 34.414062 21.421875 L 34.375 21.453125 C 34.339844 21.488281 34.300781 21.519531 34.261719 21.554688 C 34.246094 21.570312 34.230469 21.589844 34.210938 21.605469 C 34.179688 21.636719 34.148438 21.667969 34.117188 21.699219 C 34.097656 21.71875 34.082031 21.738281 34.0625 21.753906 C 34.03125 21.785156 34 21.820312 33.972656 21.851562 L 33.917969 21.914062 C 33.886719 21.945312 33.859375 21.980469 33.832031 22.011719 C 33.8125 22.035156 33.792969 22.054688 33.773438 22.078125 C 33.757812 22.097656 33.71875 22.144531 33.691406 22.183594 C 33.671875 22.203125 33.65625 22.222656 33.636719 22.246094 L 33.550781 22.367188 L 33.507812 22.425781 C 33.472656 22.472656 33.4375 22.519531 33.40625 22.570312 L 33.375 22.609375 C 33.332031 22.675781 33.292969 22.738281 33.25 22.804688 L 33.226562 22.84375 C 33.191406 22.894531 33.160156 22.945312 33.125 23 C 33.113281 23.023438 33.097656 23.046875 33.085938 23.070312 C 33.058594 23.117188 33.035156 23.160156 33.007812 23.207031 C 32.996094 23.230469 32.980469 23.261719 32.964844 23.285156 L 32.898438 23.414062 C 32.882812 23.441406 32.867188 23.472656 32.851562 23.5 L 32.789062 23.628906 C 32.773438 23.660156 32.757812 23.691406 32.746094 23.722656 C 32.726562 23.765625 32.703125 23.808594 32.683594 23.855469 C 32.671875 23.886719 32.65625 23.914062 32.644531 23.945312 C 32.625 23.992188 32.605469 24.039062 32.585938 24.085938 C 32.574219 24.117188 32.558594 24.144531 32.546875 24.175781 C 32.527344 24.226562 32.507812 24.28125 32.488281 24.332031 C 32.476562 24.359375 32.46875 24.382812 32.457031 24.410156 C 32.429688 24.492188 32.402344 24.566406 32.375 24.648438 C 32.039062 25.664062 31.902344 26.6875 31.984375 27.621094 C 32.113281 29.089844 32.765625 30.136719 33.730469 30.414062 C 34.507812 30.632812 35.414062 30.347656 36.28125 29.609375 C 37.179688 28.839844 37.921875 27.683594 38.363281 26.355469 C 38.765625 25.148438 38.882812 23.914062 38.691406 22.871094 C 38.515625 21.964844 38.132812 21.269531 37.589844 20.878906 Z M 37.589844 20.878906 " fill-opacity="1" fill-rule="nonzero"/><path fill="#f7f6f2" d="M 21.652344 5.121094 C 21.507812 4.414062 20.949219 2.183594 19.445312 1.222656 C 18.675781 0.734375 17.757812 0.640625 16.710938 0.945312 C 13.949219 1.753906 10.488281 4.375 7.222656 8.144531 C 4.28125 11.539062 2.003906 15.320312 1.433594 17.773438 C 1.253906 18.539062 1.152344 19.5625 1.699219 20.0625 C 3.300781 21.53125 5.523438 21.5 8.308594 19.972656 C 10.175781 18.949219 11.679688 17.558594 12.03125 17.222656 C 11.953125 16.207031 12.019531 15.199219 12.230469 14.199219 C 13.179688 9.660156 16.921875 6.304688 21.652344 5.121094 Z M 21.652344 5.121094 " fill-opacity="1" fill-rule="nonzero"/><path fill="#f7f6f2" d="M 38.074219 10.632812 L 38.09375 10.660156 C 39.292969 9.464844 40.105469 6.351562 39.347656 4.195312 C 38.808594 2.65625 37.558594 1.839844 35.742188 1.839844 C 31.410156 1.839844 28.949219 4.214844 28.324219 4.90625 C 28.503906 4.9375 28.6875 4.972656 28.867188 5.011719 C 32.625 5.796875 35.894531 7.792969 38.074219 10.632812 Z M 38.074219 10.632812 " fill-opacity="1" fill-rule="nonzero"/><path fill="#f7f6f2" d="M 28.765625 5.503906 C 27.679688 5.273438 26.578125 5.160156 25.46875 5.160156 C 19.261719 5.160156 13.871094 8.832031 12.722656 14.300781 C 11.933594 18.054688 13.320312 22.039062 16.429688 24.96875 C 17.660156 26.125 19.050781 27.042969 20.59375 27.726562 C 21.648438 28.199219 22.742188 28.550781 23.871094 28.789062 C 26.210938 29.285156 28.546875 29.25 30.871094 28.683594 C 30.871094 28.660156 30.871094 28.636719 30.871094 28.609375 C 30.871094 28.5625 30.867188 28.519531 30.863281 28.46875 C 30.863281 28.441406 30.863281 28.410156 30.863281 28.382812 C 30.863281 28.339844 30.863281 28.300781 30.863281 28.253906 C 30.863281 28.207031 30.863281 28.191406 30.863281 28.160156 C 30.863281 28.128906 30.863281 28.078125 30.863281 28.035156 C 30.863281 27.992188 30.863281 27.972656 30.863281 27.9375 L 30.871094 27.816406 L 30.875 27.714844 C 30.875 27.675781 30.878906 27.632812 30.882812 27.59375 L 30.890625 27.492188 C 30.890625 27.453125 30.898438 27.410156 30.902344 27.371094 C 30.90625 27.328125 30.90625 27.300781 30.910156 27.265625 C 30.914062 27.234375 30.917969 27.1875 30.925781 27.144531 L 30.9375 27.042969 L 30.953125 26.917969 C 30.957031 26.882812 30.960938 26.851562 30.96875 26.816406 C 30.972656 26.78125 30.980469 26.734375 30.988281 26.691406 C 30.996094 26.648438 31 26.621094 31.003906 26.589844 C 31.011719 26.554688 31.019531 26.507812 31.027344 26.460938 L 31.046875 26.359375 C 31.054688 26.320312 31.0625 26.28125 31.074219 26.230469 C 31.082031 26.183594 31.085938 26.164062 31.09375 26.132812 C 31.101562 26.089844 31.113281 26.042969 31.125 26 L 31.144531 25.90625 C 31.15625 25.859375 31.167969 25.8125 31.179688 25.765625 L 31.203125 25.675781 C 31.21875 25.625 31.230469 25.574219 31.246094 25.523438 C 31.253906 25.496094 31.257812 25.472656 31.265625 25.449219 C 31.289062 25.371094 31.308594 25.296875 31.335938 25.21875 C 31.84375 23.574219 32.699219 22.136719 33.738281 21.179688 C 34.820312 20.183594 35.976562 19.808594 37 20.125 C 37.054688 20.140625 37.105469 20.160156 37.160156 20.179688 L 37.183594 20.1875 C 37.234375 20.207031 37.28125 20.230469 37.332031 20.253906 L 37.359375 20.265625 C 37.40625 20.289062 37.457031 20.316406 37.503906 20.34375 L 37.519531 20.355469 C 37.5625 20.378906 37.609375 20.410156 37.652344 20.433594 L 37.667969 20.445312 C 37.714844 20.476562 37.757812 20.511719 37.800781 20.542969 L 37.828125 20.566406 C 37.871094 20.597656 37.910156 20.636719 37.953125 20.671875 L 37.972656 20.691406 C 38.015625 20.730469 38.054688 20.773438 38.097656 20.8125 C 38.136719 20.855469 38.179688 20.902344 38.214844 20.945312 L 38.234375 20.96875 C 38.273438 21.015625 38.308594 21.058594 38.34375 21.109375 L 38.363281 21.136719 C 38.398438 21.183594 38.433594 21.234375 38.46875 21.285156 C 38.472656 21.289062 38.476562 21.296875 38.480469 21.300781 C 38.511719 21.351562 38.542969 21.402344 38.574219 21.457031 L 38.585938 21.476562 C 38.617188 21.53125 38.648438 21.585938 38.675781 21.644531 L 38.691406 21.675781 C 38.722656 21.734375 38.75 21.792969 38.773438 21.851562 C 38.777344 21.863281 38.78125 21.871094 38.789062 21.882812 C 38.816406 21.945312 38.839844 22.007812 38.871094 22.070312 C 38.894531 22.136719 38.917969 22.203125 38.941406 22.273438 L 38.953125 22.304688 C 38.976562 22.371094 38.996094 22.4375 39.015625 22.503906 C 39.015625 22.511719 39.019531 22.515625 39.019531 22.523438 C 39.429688 21.714844 39.726562 20.867188 39.914062 19.984375 C 40.566406 16.882812 39.769531 13.667969 37.671875 10.933594 C 35.574219 8.199219 32.40625 6.265625 28.765625 5.503906 Z M 33.613281 17.929688 C 33.257812 18.617188 32.503906 19.070312 31.730469 19.117188 C 31.722656 19.175781 31.71875 19.230469 31.707031 19.289062 C 31.457031 20.832031 30.308594 21.957031 29.0625 21.957031 C 28.949219 21.957031 28.839844 21.949219 28.730469 21.929688 C 28.058594 21.820312 27.480469 21.394531 27.105469 20.730469 C 26.726562 20.023438 26.605469 19.273438 26.746094 18.484375 C 26.757812 18.417969 26.769531 18.351562 26.785156 18.285156 C 26.121094 17.972656 25.601562 17.335938 25.488281 16.609375 C 25.476562 16.539062 25.488281 16.472656 25.53125 16.414062 C 25.570312 16.355469 25.628906 16.320312 25.699219 16.308594 C 25.769531 16.300781 25.835938 16.316406 25.890625 16.359375 C 25.949219 16.402344 25.980469 16.460938 25.988281 16.53125 C 26.050781 16.933594 26.234375 17.269531 26.535156 17.539062 C 26.835938 17.8125 27.1875 17.960938 27.59375 17.984375 C 27.996094 18.007812 28.363281 17.902344 28.695312 17.667969 C 29.023438 17.429688 29.246094 17.117188 29.351562 16.726562 C 29.371094 16.660156 29.410156 16.609375 29.472656 16.574219 C 29.53125 16.539062 29.597656 16.53125 29.664062 16.550781 L 29.667969 16.550781 C 29.738281 16.554688 29.796875 16.582031 29.84375 16.632812 C 29.890625 16.6875 29.914062 16.746094 29.910156 16.816406 C 29.886719 17.222656 29.992188 17.589844 30.230469 17.921875 C 30.46875 18.25 30.785156 18.46875 31.175781 18.574219 C 31.570312 18.683594 31.953125 18.652344 32.324219 18.488281 C 32.699219 18.324219 32.976562 18.0625 33.164062 17.699219 C 33.195312 17.640625 33.246094 17.597656 33.3125 17.578125 C 33.378906 17.554688 33.441406 17.5625 33.503906 17.59375 C 33.566406 17.625 33.605469 17.675781 33.628906 17.742188 C 33.648438 17.804688 33.644531 17.871094 33.613281 17.933594 Z M 33.613281 17.929688 " fill-opacity="1" fill-rule="nonzero"/><path fill="#ffa1a8" d="M 29.507812 17.542969 C 29.054688 18.160156 28.445312 18.476562 27.679688 18.492188 C 27.640625 18.492188 27.605469 18.492188 27.566406 18.488281 C 27.464844 18.480469 27.367188 18.46875 27.269531 18.449219 C 27.261719 18.488281 27.253906 18.523438 27.246094 18.5625 C 27.125 19.238281 27.226562 19.878906 27.550781 20.484375 C 27.847656 21.011719 28.296875 21.347656 28.8125 21.433594 C 29.90625 21.609375 30.984375 20.613281 31.210938 19.207031 C 31.21875 19.167969 31.222656 19.128906 31.226562 19.09375 C 31.167969 19.082031 31.109375 19.070312 31.050781 19.054688 C 30.324219 18.855469 29.734375 18.253906 29.507812 17.542969 Z M 29.507812 17.542969 " fill-opacity="1" fill-rule="nonzero"/><path fill="#c8c6c6" d="M 30.871094 28.683594 C 30.871094 28.660156 30.871094 28.632812 30.871094 28.609375 C 30.871094 28.5625 30.867188 28.515625 30.863281 28.46875 C 30.863281 28.441406 30.863281 28.410156 30.863281 28.382812 C 30.863281 28.339844 30.863281 28.300781 30.863281 28.253906 C 30.863281 28.207031 30.863281 28.191406 30.863281 28.160156 C 30.863281 28.128906 30.863281 28.078125 30.863281 28.035156 C 30.863281 27.992188 30.863281 27.96875 30.863281 27.9375 L 30.871094 27.8125 L 30.875 27.714844 C 30.875 27.675781 30.878906 27.632812 30.882812 27.59375 L 30.890625 27.492188 C 30.890625 27.449219 30.898438 27.410156 30.902344 27.367188 C 30.90625 27.328125 30.90625 27.300781 30.910156 27.265625 C 30.914062 27.234375 30.917969 27.183594 30.925781 27.144531 L 30.9375 27.042969 L 30.953125 26.917969 C 30.957031 26.882812 30.960938 26.847656 30.96875 26.816406 C 30.972656 26.78125 30.980469 26.734375 30.988281 26.691406 C 30.996094 26.648438 31 26.621094 31.003906 26.585938 C 26.289062 27.648438 19.003906 26.359375 15.746094 20.050781 C 12.488281 13.746094 17.03125 7.800781 17.03125 7.800781 C 14.851562 9.398438 13.285156 11.636719 12.722656 14.300781 C 11.9375 18.054688 13.320312 22.039062 16.429688 24.972656 C 17.664062 26.125 19.050781 27.046875 20.59375 27.730469 C 21.648438 28.199219 22.742188 28.554688 23.871094 28.789062 C 26.214844 29.285156 28.546875 29.25 30.871094 28.683594 Z M 30.871094 28.683594 " fill-opacity="1" fill-rule="nonzero"/><path fill="#ffa1a8" d="M 5.699219 19.886719 C 8.777344 20.125 11.054688 18.140625 12.019531 16.96875 C 11.964844 16.035156 12.035156 15.113281 12.230469 14.195312 C 12.847656 11.253906 14.644531 8.804688 17.121094 7.125 C 17.121094 7.125 17.328125 6.875 17.257812 6.859375 C 10.820312 5.269531 0.734375 19.496094 5.699219 19.886719 Z M 5.699219 19.886719 " fill-opacity="1" fill-rule="nonzero"/><path fill="#f7f6f2" d="M 16.84375 27.042969 C 17.175781 27.242188 17.433594 27.535156 17.621094 27.914062 C 17.808594 28.296875 17.90625 28.738281 17.921875 29.242188 C 17.933594 29.746094 17.859375 30.269531 17.699219 30.820312 C 17.539062 31.371094 17.300781 31.898438 16.992188 32.410156 C 16.679688 32.921875 16.316406 33.375 15.902344 33.769531 C 15.488281 34.164062 15.050781 34.472656 14.597656 34.691406 C 14.144531 34.910156 13.703125 35.023438 13.277344 35.035156 C 12.855469 35.042969 12.476562 34.949219 12.144531 34.746094 C 11.8125 34.546875 11.554688 34.253906 11.367188 33.875 C 11.179688 33.492188 11.082031 33.050781 11.066406 32.546875 C 11.054688 32.042969 11.128906 31.519531 11.289062 30.96875 C 11.449219 30.417969 11.6875 29.890625 11.996094 29.378906 C 12.308594 28.867188 12.671875 28.414062 13.085938 28.019531 C 13.5 27.625 13.9375 27.316406 14.390625 27.097656 C 14.84375 26.878906 15.285156 26.765625 15.710938 26.753906 C 16.136719 26.746094 16.511719 26.839844 16.84375 27.042969 Z M 16.84375 27.042969 " fill-opacity="1" fill-rule="nonzero"/><path fill="#ffffff" d="M 32.824219 2.230469 C 32.90625 2.214844 38.351562 1.21875 38.664062 5.863281 C 38.773438 7.363281 38.394531 8.734375 37.53125 9.972656 C 37.71875 10.191406 37.898438 10.410156 38.074219 10.632812 L 38.09375 10.660156 C 39.292969 9.464844 40.105469 6.351562 39.347656 4.195312 C 38.808594 2.65625 37.558594 1.839844 35.742188 1.839844 C 34.753906 1.835938 33.777344 1.964844 32.824219 2.230469 Z M 32.824219 2.230469 " fill-opacity="1" fill-rule="nonzero"/><path fill="#ffffff" d="M 38.777344 21.855469 C 38.78125 21.867188 38.785156 21.875 38.789062 21.886719 C 38.816406 21.949219 38.84375 22.011719 38.871094 22.074219 C 38.898438 22.140625 38.921875 22.207031 38.945312 22.273438 L 38.957031 22.308594 C 38.976562 22.375 38.996094 22.441406 39.019531 22.507812 C 39.019531 22.515625 39.023438 22.519531 39.023438 22.523438 C 39.433594 21.71875 39.730469 20.871094 39.914062 19.988281 C 40.570312 16.886719 39.769531 13.671875 37.675781 10.9375 C 35.578125 8.203125 32.40625 6.265625 28.765625 5.503906 C 27.679688 5.273438 26.578125 5.160156 25.46875 5.160156 C 24.46875 5.160156 23.472656 5.257812 22.492188 5.449219 C 22.492188 5.449219 30.03125 4.242188 36.230469 10.496094 C 40.101562 14.402344 39.613281 18.878906 38.695312 21.6875 C 38.726562 21.742188 38.75 21.800781 38.777344 21.855469 Z M 38.777344 21.855469 " fill-opacity="1" fill-rule="nonzero"/><path fill="#c8c6c6" d="M 12.035156 15.558594 C 5.386719 23.308594 1.492188 18.875 1.296875 18.644531 C 1.265625 19.195312 1.347656 19.742188 1.699219 20.066406 C 3.300781 21.535156 5.523438 21.503906 8.308594 19.976562 C 10.175781 18.953125 11.679688 17.5625 12.03125 17.226562 C 11.992188 16.671875 11.992188 16.113281 12.035156 15.558594 Z M 12.035156 15.558594 " fill-opacity="1" fill-rule="nonzero"/><path fill="#ef7d8b" d="M 12.035156 15.558594 C 9.738281 18.234375 7.769531 19.460938 6.167969 19.902344 C 9.011719 19.921875 11.105469 18.082031 12.019531 16.96875 C 12.019531 16.960938 12.019531 16.949219 12.019531 16.9375 C 12.011719 16.851562 12.007812 16.765625 12.007812 16.679688 C 12.007812 16.628906 12.007812 16.582031 12.007812 16.53125 C 12.007812 16.464844 12.007812 16.394531 12.007812 16.328125 C 12.007812 16.226562 12.007812 16.128906 12.015625 16.027344 C 12.015625 16.007812 12.015625 15.984375 12.015625 15.964844 C 12.019531 15.828125 12.027344 15.691406 12.039062 15.558594 Z M 12.035156 15.558594 " fill-opacity="1" fill-rule="nonzero"/><g clip-path="url(#8481865efe)"><path fill="#334960" d="M 38.539062 11.085938 C 39.882812 9.71875 40.769531 6.375 39.929688 3.992188 C 39.488281 2.730469 38.402344 1.230469 35.746094 1.230469 C 30.566406 1.230469 27.964844 4.355469 27.695312 4.699219 C 25.867188 4.445312 24.042969 4.5 22.230469 4.871094 C 22.039062 3.972656 21.414062 1.753906 19.777344 0.707031 C 18.851562 0.117188 17.769531 0 16.542969 0.355469 C 13.667969 1.195312 10.101562 3.886719 6.761719 7.746094 C 3.707031 11.261719 1.4375 15.050781 0.839844 17.632812 C 0.523438 18.980469 0.675781 19.949219 1.289062 20.515625 C 2.191406 21.351562 3.257812 21.761719 4.492188 21.746094 C 5.726562 21.746094 7.109375 21.332031 8.617188 20.503906 C 9.839844 19.816406 10.976562 19.003906 12.023438 18.070312 C 12.410156 20.597656 13.660156 23.046875 15.644531 25.058594 C 14.507812 25.675781 13.410156 26.664062 12.515625 27.890625 C 11.488281 29.296875 10.84375 30.859375 10.695312 32.285156 C 10.539062 33.785156 10.949219 34.96875 11.847656 35.621094 C 12.339844 35.972656 12.890625 36.140625 13.5 36.128906 C 14.082031 36.128906 14.714844 35.984375 15.378906 35.691406 C 16.695312 35.113281 17.984375 34.019531 19.011719 32.609375 C 19.984375 31.28125 20.605469 29.835938 20.800781 28.480469 C 22.84375 29.320312 24.972656 29.742188 27.179688 29.742188 C 28.410156 29.746094 29.628906 29.605469 30.828125 29.324219 C 31.070312 31.089844 31.90625 32.34375 33.109375 32.714844 C 33.359375 32.792969 33.613281 32.832031 33.871094 32.828125 C 34.722656 32.828125 35.625 32.421875 36.476562 31.636719 C 37.535156 30.664062 38.398438 29.210938 38.914062 27.550781 C 39.363281 26.09375 39.5 24.59375 39.304688 23.304688 C 39.875 22.304688 40.28125 21.242188 40.515625 20.117188 C 41.160156 17.03125 40.460938 13.847656 38.539062 11.085938 Z M 35.742188 1.949219 C 37.535156 1.949219 38.714844 2.71875 39.246094 4.234375 C 39.972656 6.304688 39.234375 9.269531 38.101562 10.5 C 35.910156 7.675781 32.640625 5.6875 28.890625 4.90625 C 28.773438 4.878906 28.652344 4.855469 28.535156 4.835938 C 29.316406 4.019531 31.703125 1.949219 35.742188 1.949219 Z M 1.773438 19.984375 C 1.265625 19.519531 1.367188 18.539062 1.539062 17.800781 C 2.109375 15.363281 4.371094 11.597656 7.304688 8.214844 C 10.558594 4.460938 14 1.851562 16.742188 1.050781 C 17.753906 0.753906 18.644531 0.84375 19.382812 1.316406 C 20.785156 2.214844 21.347656 4.246094 21.523438 5.035156 C 20.332031 5.339844 19.199219 5.789062 18.121094 6.378906 C 14.941406 8.125 12.8125 10.894531 12.125 14.175781 C 11.917969 15.167969 11.847656 16.171875 11.921875 17.183594 C 11.042969 18.007812 5.273438 23.191406 1.773438 19.984375 Z M 18.425781 32.1875 C 17.472656 33.492188 16.285156 34.503906 15.085938 35.03125 C 13.949219 35.53125 12.949219 35.535156 12.265625 35.039062 C 11.585938 34.542969 11.28125 33.59375 11.410156 32.359375 C 11.542969 31.054688 12.144531 29.621094 13.09375 28.316406 C 13.980469 27.097656 15.074219 26.136719 16.191406 25.585938 L 16.222656 25.613281 L 16.308594 25.691406 C 16.355469 25.734375 16.402344 25.777344 16.453125 25.816406 C 16.484375 25.84375 16.515625 25.871094 16.546875 25.898438 C 16.59375 25.941406 16.640625 25.980469 16.6875 26.019531 L 16.785156 26.101562 L 16.929688 26.214844 L 17.027344 26.296875 C 17.078125 26.335938 17.125 26.375 17.175781 26.410156 L 17.273438 26.488281 L 17.429688 26.601562 L 17.523438 26.671875 C 17.582031 26.714844 17.640625 26.753906 17.695312 26.792969 L 17.777344 26.851562 C 17.859375 26.910156 17.949219 26.96875 18.035156 27.027344 L 18.046875 27.035156 C 18.128906 27.089844 18.210938 27.140625 18.292969 27.199219 L 18.382812 27.253906 L 18.558594 27.363281 L 18.832031 27.519531 L 18.945312 27.585938 C 18.996094 27.617188 19.050781 27.648438 19.105469 27.675781 L 19.222656 27.742188 L 19.386719 27.828125 L 19.503906 27.890625 C 19.558594 27.917969 19.617188 27.945312 19.667969 27.972656 L 19.789062 28.03125 L 19.960938 28.113281 L 20.074219 28.164062 L 20.109375 28.179688 C 19.964844 29.457031 19.359375 30.902344 18.425781 32.1875 Z M 38.21875 27.335938 C 37.738281 28.882812 36.945312 30.222656 35.980469 31.109375 C 35.070312 31.949219 34.125 32.277344 33.316406 32.027344 C 32.3125 31.71875 31.632812 30.53125 31.496094 28.84375 C 31.40625 27.765625 31.554688 26.574219 31.917969 25.394531 C 32.394531 23.851562 33.1875 22.511719 34.152344 21.621094 C 34.207031 21.574219 34.257812 21.53125 34.308594 21.484375 L 34.355469 21.445312 L 34.46875 21.355469 L 34.519531 21.3125 L 34.640625 21.226562 L 34.679688 21.199219 C 34.730469 21.164062 34.78125 21.128906 34.835938 21.09375 L 34.867188 21.074219 C 34.910156 21.046875 34.949219 21.023438 34.992188 21 L 35.042969 20.972656 C 35.078125 20.953125 35.117188 20.933594 35.152344 20.914062 L 35.203125 20.890625 C 35.25 20.867188 35.292969 20.847656 35.339844 20.828125 L 35.359375 20.820312 C 35.410156 20.796875 35.460938 20.777344 35.511719 20.761719 L 35.554688 20.746094 C 35.59375 20.734375 35.632812 20.722656 35.667969 20.710938 L 35.71875 20.699219 C 35.757812 20.6875 35.792969 20.679688 35.828125 20.671875 L 35.871094 20.664062 C 35.921875 20.652344 35.972656 20.644531 36.023438 20.636719 L 36.046875 20.636719 L 36.171875 20.628906 L 36.21875 20.628906 C 36.25 20.628906 36.285156 20.628906 36.316406 20.628906 C 36.347656 20.628906 36.355469 20.628906 36.375 20.628906 C 36.398438 20.628906 36.4375 20.632812 36.46875 20.636719 L 36.527344 20.644531 C 36.558594 20.648438 36.59375 20.652344 36.625 20.660156 L 36.671875 20.667969 C 36.722656 20.679688 36.769531 20.691406 36.816406 20.707031 C 37.039062 20.777344 37.242188 20.886719 37.425781 21.03125 C 37.472656 21.070312 37.519531 21.109375 37.5625 21.148438 C 37.800781 21.378906 37.992188 21.644531 38.136719 21.941406 C 38.15625 21.980469 38.175781 22.023438 38.195312 22.066406 C 38.207031 22.089844 38.21875 22.113281 38.226562 22.136719 C 38.386719 22.511719 38.496094 22.898438 38.5625 23.296875 C 38.773438 24.503906 38.652344 25.941406 38.21875 27.335938 Z M 39.804688 19.96875 C 39.640625 20.753906 39.386719 21.511719 39.042969 22.238281 C 39.042969 22.230469 39.039062 22.222656 39.035156 22.214844 C 39.011719 22.152344 38.988281 22.089844 38.964844 22.03125 L 38.960938 22.019531 C 38.9375 21.960938 38.914062 21.902344 38.890625 21.847656 L 38.875 21.808594 C 38.847656 21.753906 38.820312 21.695312 38.792969 21.640625 C 38.785156 21.632812 38.78125 21.621094 38.777344 21.609375 C 38.75 21.5625 38.722656 21.511719 38.699219 21.464844 L 38.683594 21.4375 C 38.65625 21.386719 38.625 21.335938 38.59375 21.289062 L 38.570312 21.253906 C 38.539062 21.203125 38.503906 21.152344 38.472656 21.105469 L 38.464844 21.097656 C 38.433594 21.054688 38.398438 21.007812 38.367188 20.964844 L 38.34375 20.9375 C 38.308594 20.894531 38.273438 20.855469 38.234375 20.8125 L 38.214844 20.789062 C 38.179688 20.75 38.148438 20.714844 38.113281 20.679688 L 38.09375 20.660156 C 38.054688 20.625 38.011719 20.585938 37.972656 20.550781 L 37.945312 20.527344 C 37.90625 20.492188 37.863281 20.460938 37.820312 20.425781 L 37.816406 20.425781 C 37.773438 20.394531 37.734375 20.363281 37.6875 20.335938 L 37.660156 20.316406 C 37.617188 20.289062 37.570312 20.261719 37.527344 20.234375 L 37.5 20.222656 C 37.460938 20.199219 37.417969 20.175781 37.375 20.15625 L 37.351562 20.144531 C 37.304688 20.125 37.257812 20.101562 37.210938 20.085938 L 37.175781 20.070312 C 37.128906 20.054688 37.078125 20.035156 37.027344 20.019531 C 35.964844 19.695312 34.769531 20.078125 33.660156 21.097656 C 32.605469 22.070312 31.738281 23.523438 31.222656 25.1875 C 31.203125 25.261719 31.179688 25.339844 31.15625 25.414062 C 31.148438 25.441406 31.144531 25.464844 31.136719 25.488281 C 31.121094 25.539062 31.109375 25.59375 31.09375 25.644531 C 31.085938 25.671875 31.078125 25.703125 31.070312 25.734375 C 31.058594 25.777344 31.046875 25.824219 31.039062 25.871094 C 31.027344 25.902344 31.023438 25.933594 31.015625 25.964844 C 31.003906 26.011719 30.992188 26.054688 30.984375 26.101562 C 30.976562 26.144531 30.972656 26.164062 30.964844 26.195312 C 30.953125 26.242188 30.945312 26.285156 30.9375 26.328125 C 30.929688 26.371094 30.925781 26.394531 30.917969 26.425781 C 30.914062 26.460938 30.902344 26.507812 30.894531 26.554688 L 30.878906 26.65625 L 30.859375 26.785156 L 30.84375 26.882812 C 30.835938 26.925781 30.832031 26.96875 30.824219 27.011719 C 30.820312 27.054688 30.816406 27.078125 30.8125 27.109375 C 30.808594 27.152344 30.804688 27.199219 30.796875 27.242188 C 30.796875 27.273438 30.792969 27.304688 30.789062 27.332031 C 30.785156 27.382812 30.78125 27.433594 30.777344 27.484375 C 30.777344 27.507812 30.773438 27.53125 30.769531 27.554688 C 30.765625 27.628906 30.761719 27.703125 30.757812 27.777344 L 30.757812 27.839844 C 30.757812 27.890625 30.757812 27.941406 30.75 27.996094 C 30.75 28.023438 30.75 28.054688 30.75 28.082031 C 30.75 28.125 30.75 28.171875 30.75 28.214844 C 30.75 28.246094 30.75 28.277344 30.75 28.308594 C 30.75 28.339844 30.75 28.390625 30.75 28.429688 L 30.75 28.601562 C 28.46875 29.144531 26.179688 29.171875 23.886719 28.683594 C 22.765625 28.449219 21.679688 28.101562 20.632812 27.632812 C 20.058594 27.375 19.5 27.085938 18.960938 26.757812 C 18.078125 26.226562 17.257812 25.605469 16.503906 24.894531 C 13.421875 21.992188 12.046875 18.039062 12.828125 14.328125 C 13.96875 8.910156 19.3125 5.269531 25.46875 5.269531 C 26.570312 5.269531 27.660156 5.382812 28.738281 5.609375 C 32.355469 6.367188 35.496094 8.28125 37.585938 11.007812 C 39.664062 13.714844 40.453125 16.898438 39.808594 19.96875 Z M 39.804688 19.96875 " fill-opacity="1" fill-rule="nonzero"/></g><path fill="#334960" d="M 34.082031 12.703125 C 33.839844 12.667969 33.597656 12.675781 33.359375 12.726562 C 33.121094 12.773438 32.894531 12.859375 32.6875 12.984375 C 32.476562 13.109375 32.292969 13.265625 32.136719 13.457031 C 31.980469 13.644531 31.863281 13.851562 31.777344 14.078125 C 31.75 14.171875 31.757812 14.261719 31.800781 14.347656 C 31.847656 14.433594 31.914062 14.492188 32.007812 14.523438 C 32.097656 14.554688 32.1875 14.550781 32.277344 14.511719 C 32.363281 14.46875 32.425781 14.40625 32.460938 14.316406 C 32.570312 14.003906 32.765625 13.761719 33.050781 13.589844 C 33.332031 13.421875 33.640625 13.363281 33.964844 13.414062 C 34.292969 13.46875 34.566406 13.617188 34.78125 13.867188 C 35 14.117188 35.109375 14.410156 35.113281 14.738281 C 35.113281 14.839844 35.152344 14.921875 35.222656 14.992188 C 35.292969 15.058594 35.375 15.09375 35.476562 15.09375 L 35.480469 15.09375 C 35.578125 15.09375 35.664062 15.058594 35.734375 14.984375 C 35.804688 14.914062 35.835938 14.828125 35.835938 14.730469 C 35.828125 14.488281 35.777344 14.25 35.691406 14.023438 C 35.601562 13.796875 35.476562 13.59375 35.316406 13.40625 C 35.15625 13.222656 34.972656 13.070312 34.757812 12.949219 C 34.546875 12.828125 34.320312 12.746094 34.082031 12.703125 Z M 34.082031 12.703125 " fill-opacity="1" fill-rule="nonzero"/><path fill="#334960" d="M 26.640625 13.621094 C 26.640625 13.71875 26.679688 13.800781 26.75 13.871094 C 26.820312 13.941406 26.902344 13.976562 27.003906 13.976562 L 27.007812 13.976562 C 27.109375 13.972656 27.195312 13.9375 27.261719 13.867188 C 27.332031 13.796875 27.367188 13.710938 27.363281 13.609375 C 27.363281 13.367188 27.316406 13.128906 27.230469 12.898438 C 27.144531 12.671875 27.019531 12.464844 26.859375 12.277344 C 26.699219 12.09375 26.511719 11.941406 26.296875 11.820312 C 26.082031 11.699219 25.855469 11.621094 25.613281 11.582031 C 25.371094 11.542969 25.128906 11.546875 24.886719 11.59375 C 24.644531 11.640625 24.417969 11.726562 24.210938 11.851562 C 24 11.976562 23.816406 12.136719 23.660156 12.324219 C 23.507812 12.515625 23.390625 12.726562 23.308594 12.957031 C 23.277344 13.050781 23.28125 13.144531 23.324219 13.230469 C 23.371094 13.320312 23.4375 13.382812 23.53125 13.414062 C 23.625 13.449219 23.71875 13.441406 23.808594 13.398438 C 23.898438 13.355469 23.957031 13.285156 23.992188 13.191406 C 24.101562 12.882812 24.296875 12.644531 24.582031 12.472656 C 24.863281 12.304688 25.167969 12.25 25.496094 12.300781 C 25.820312 12.355469 26.09375 12.503906 26.308594 12.753906 C 26.523438 13.003906 26.636719 13.292969 26.640625 13.621094 Z M 26.640625 13.621094 " fill-opacity="1" fill-rule="nonzero"/><path fill="#334960" d="M 33.550781 17.492188 C 33.464844 17.445312 33.371094 17.4375 33.277344 17.46875 C 33.183594 17.5 33.113281 17.558594 33.066406 17.648438 C 32.738281 18.285156 31.902344 18.648438 31.207031 18.464844 C 30.609375 18.300781 30.128906 17.726562 30.035156 17.117188 C 30.710938 17.105469 31.246094 16.835938 31.3125 16.425781 C 31.394531 15.917969 30.734375 15.386719 29.839844 15.242188 C 28.945312 15.097656 28.148438 15.390625 28.066406 15.894531 C 27.996094 16.324219 28.453125 16.765625 29.136719 16.980469 C 28.84375 17.527344 28.214844 17.910156 27.601562 17.875 C 26.882812 17.832031 26.210938 17.222656 26.097656 16.511719 C 26.082031 16.414062 26.035156 16.335938 25.953125 16.277344 C 25.875 16.21875 25.785156 16.195312 25.6875 16.210938 C 25.585938 16.226562 25.507812 16.273438 25.449219 16.355469 C 25.390625 16.4375 25.371094 16.523438 25.386719 16.625 C 25.5 17.359375 26.007812 18.003906 26.664062 18.34375 C 26.65625 18.382812 26.648438 18.421875 26.640625 18.464844 C 26.496094 19.277344 26.621094 20.050781 27.015625 20.78125 C 27.40625 21.472656 28.007812 21.921875 28.714844 22.035156 C 28.832031 22.054688 28.945312 22.0625 29.0625 22.0625 C 30.363281 22.0625 31.558594 20.898438 31.816406 19.304688 C 31.824219 19.273438 31.824219 19.246094 31.828125 19.214844 C 32.605469 19.132812 33.347656 18.671875 33.710938 17.976562 C 33.753906 17.886719 33.761719 17.796875 33.730469 17.703125 C 33.699219 17.605469 33.640625 17.539062 33.550781 17.492188 Z M 28.828125 21.328125 C 28.34375 21.246094 27.921875 20.929688 27.640625 20.429688 C 27.332031 19.847656 27.234375 19.230469 27.351562 18.582031 C 27.351562 18.582031 27.351562 18.578125 27.351562 18.574219 C 27.417969 18.585938 27.488281 18.59375 27.554688 18.597656 C 27.597656 18.597656 27.636719 18.597656 27.675781 18.597656 C 28.398438 18.582031 28.996094 18.300781 29.46875 17.753906 C 29.746094 18.417969 30.320312 18.964844 31.019531 19.15625 C 31.046875 19.164062 31.074219 19.167969 31.101562 19.175781 C 31.101562 19.179688 31.101562 19.183594 31.101562 19.1875 C 30.886719 20.535156 29.867188 21.496094 28.832031 21.328125 Z M 28.828125 21.328125 " fill-opacity="1" fill-rule="nonzero"/><g fill="#334960" fill-opacity="1"><g transform="translate(47.588193, 17.023028)"><g><path d="M 1.078125 -4.984375 C 1.078125 -4.03125 1.109375 -0.828125 2.125 -0.421875 C 2.53125 -0.265625 2.984375 -0.234375 3.40625 -0.234375 C 4.34375 -0.234375 4.4375 -0.859375 4.4375 -1.625 C 4.4375 -2.046875 4.40625 -2.46875 4.40625 -2.890625 C 4.40625 -4.046875 4.8125 -4.578125 6 -4.578125 C 6.34375 -4.578125 6.703125 -4.546875 7.03125 -4.546875 C 7.71875 -4.546875 8.515625 -4.671875 8.515625 -5.515625 C 8.515625 -5.90625 8.5 -6.484375 8.15625 -6.71875 C 8 -6.8125 7.828125 -6.859375 7.65625 -6.875 C 7.0625 -6.921875 6.4375 -6.890625 5.859375 -6.890625 C 5.0625 -6.890625 4.390625 -6.8125 4.390625 -7.828125 C 4.390625 -8.6875 4.5625 -9.0625 5.484375 -9.0625 L 6.296875 -9.0625 C 6.6875 -9.0625 7.0625 -8.984375 7.453125 -8.984375 C 7.90625 -8.984375 8.734375 -9.03125 8.734375 -9.65625 C 8.734375 -10.15625 8.703125 -10.734375 8.328125 -11.109375 C 7.90625 -11.515625 5.59375 -11.578125 4.96875 -11.578125 C 1.046875 -11.578125 1.078125 -9.75 1.078125 -6.4375 Z M 1.078125 -4.984375 "/></g></g></g><g fill="#334960" fill-opacity="1"><g transform="translate(56.476733, 17.023028)"><g><path d="M 3.140625 -11.515625 C 2.609375 -11.515625 1.828125 -11.421875 1.46875 -10.953125 C 0.9375 -10.25 0.90625 -7.21875 0.90625 -6.25 C 0.90625 -5.65625 0.921875 -5.0625 0.921875 -4.46875 C 0.953125 -1.765625 3.0625 -0.015625 5.703125 -0.015625 C 7.546875 -0.015625 9.3125 -0.9375 10.125 -2.640625 C 10.390625 -3.234375 10.5 -3.859375 10.5 -4.484375 C 10.5 -5.328125 10.53125 -6.171875 10.53125 -7 C 10.53125 -7.84375 10.484375 -10.5625 9.8125 -11.109375 C 9.359375 -11.46875 8.796875 -11.46875 8.234375 -11.46875 C 7.046875 -11.46875 7.203125 -10.359375 7.203125 -9.515625 C 7.203125 -7.765625 7.25 -6.015625 7.25 -4.265625 C 7.25 -3.125 6.859375 -2.515625 5.671875 -2.515625 C 4.421875 -2.515625 4.25 -3.453125 4.25 -4.484375 C 4.25 -5.703125 4.359375 -6.890625 4.359375 -8.109375 C 4.359375 -8.984375 4.34375 -9.890625 4.1875 -10.765625 C 4.125 -11.015625 4.046875 -11.234375 3.84375 -11.359375 C 3.640625 -11.46875 3.375 -11.515625 3.140625 -11.515625 Z M 3.140625 -11.515625 "/></g></g></g><g fill="#334960" fill-opacity="1"><g transform="translate(67.059199, 17.023028)"><g><path d="M 10.671875 -6.390625 C 10.671875 -7.4375 10.609375 -10.4375 9.875 -11.15625 C 9.65625 -11.375 9.109375 -11.46875 8.78125 -11.46875 C 7.953125 -11.46875 7.484375 -11.421875 7.484375 -10.453125 C 7.484375 -9.875 7.53125 -9.3125 7.53125 -8.734375 C 7.53125 -8.390625 7.5625 -6.5 7.125 -6.5 C 6.28125 -6.5 5.234375 -11.484375 3.28125 -11.484375 C 2.921875 -11.484375 2.625 -11.484375 2.28125 -11.359375 C 1.09375 -10.9375 1.0625 -7.71875 1.0625 -6.671875 C 1.0625 -5.5625 1.0625 -1.359375 1.828125 -0.625 C 2.09375 -0.375 2.765625 -0.3125 3.125 -0.3125 C 3.9375 -0.3125 4.28125 -0.71875 4.28125 -1.515625 C 4.28125 -2.375 4.21875 -3.234375 4.21875 -4.078125 C 4.21875 -4.3125 4.21875 -5.484375 4.5 -5.484375 C 5.109375 -5.484375 6.828125 -0.828125 7.765625 -0.390625 C 7.96875 -0.296875 8.1875 -0.28125 8.40625 -0.28125 C 8.9375 -0.28125 9.421875 -0.328125 9.859375 -0.640625 C 10.65625 -1.234375 10.671875 -4.21875 10.671875 -5.15625 Z M 10.671875 -6.390625 "/></g></g></g><g fill="#334960" fill-opacity="1"><g transform="translate(77.964318, 17.023028)"><g><path d="M 1.078125 -4.984375 C 1.078125 -4.03125 1.109375 -0.828125 2.125 -0.421875 C 2.53125 -0.265625 2.984375 -0.234375 3.40625 -0.234375 C 4.34375 -0.234375 4.4375 -0.859375 4.4375 -1.625 C 4.4375 -2.046875 4.40625 -2.46875 4.40625 -2.890625 C 4.40625 -4.046875 4.8125 -4.578125 6 -4.578125 C 6.34375 -4.578125 6.703125 -4.546875 7.03125 -4.546875 C 7.71875 -4.546875 8.515625 -4.671875 8.515625 -5.515625 C 8.515625 -5.90625 8.5 -6.484375 8.15625 -6.71875 C 8 -6.8125 7.828125 -6.859375 7.65625 -6.875 C 7.0625 -6.921875 6.4375 -6.890625 5.859375 -6.890625 C 5.0625 -6.890625 4.390625 -6.8125 4.390625 -7.828125 C 4.390625 -8.6875 4.5625 -9.0625 5.484375 -9.0625 L 6.296875 -9.0625 C 6.6875 -9.0625 7.0625 -8.984375 7.453125 -8.984375 C 7.90625 -8.984375 8.734375 -9.03125 8.734375 -9.65625 C 8.734375 -10.15625 8.703125 -10.734375 8.328125 -11.109375 C 7.90625 -11.515625 5.59375 -11.578125 4.96875 -11.578125 C 1.046875 -11.578125 1.078125 -9.75 1.078125 -6.4375 Z M 1.078125 -4.984375 "/></g></g></g><g fill="#334960" fill-opacity="1"><g transform="translate(86.85286, 17.023028)"><g><path d="M 4.453125 -6 C 4.453125 -6.28125 4.484375 -6.546875 4.5 -6.828125 C 4.53125 -7.40625 4.5625 -7.984375 4.5625 -8.578125 C 4.5625 -9.40625 4.515625 -11.53125 3.328125 -11.53125 C 2.59375 -11.53125 1.96875 -11.4375 1.578125 -10.75 C 1.09375 -9.875 1.078125 -6.6875 1.078125 -5.578125 C 1.078125 -4.734375 1.09375 -3.859375 1.15625 -3 C 1.203125 -2.421875 1.34375 -1.84375 1.671875 -1.359375 C 2.625 0.03125 5.359375 -0.1875 6.84375 -0.1875 C 7.53125 -0.1875 8.359375 -0.34375 8.859375 -0.875 C 9.15625 -1.171875 9.21875 -1.625 9.21875 -2.046875 C 9.21875 -2.546875 8.953125 -2.8125 8.453125 -2.8125 C 7.734375 -2.8125 7 -2.78125 6.265625 -2.78125 C 5.921875 -2.78125 5.5625 -2.8125 5.265625 -2.96875 C 4.40625 -3.421875 4.453125 -5.1875 4.453125 -6 Z M 4.453125 -6 "/></g></g></g><g fill="#334960" fill-opacity="1"><g transform="translate(96.064057, 17.023028)"><g><path d="M 4.9375 -7.625 C 4.9375 -8.40625 4.859375 -10.921875 4.125 -11.359375 C 3.765625 -11.59375 3.453125 -11.578125 3.03125 -11.578125 C 2.734375 -11.578125 2.453125 -11.53125 2.1875 -11.375 C 1.3125 -10.875 1.28125 -7.859375 1.28125 -6.921875 C 1.28125 -6.234375 1.3125 -5.546875 1.3125 -4.859375 C 1.3125 -4.015625 1.34375 -0.84375 2.09375 -0.40625 C 2.4375 -0.203125 2.859375 -0.1875 3.25 -0.1875 C 3.828125 -0.1875 4.296875 -0.453125 4.546875 -0.984375 C 4.890625 -1.671875 4.9375 -3.984375 4.9375 -4.8125 Z M 4.9375 -7.625 "/></g></g></g><g fill="#334960" fill-opacity="1"><g transform="translate(101.48409, 17.023028)"><g><path d="M 4.96875 -8.609375 C 4.96875 -7.140625 1.078125 -4.359375 1.078125 -1.640625 C 1.078125 -0.1875 3.5 -0.171875 4.5 -0.171875 C 5.421875 -0.171875 8.296875 -0.15625 8.9375 -0.71875 C 9.34375 -1.078125 9.375 -1.46875 9.375 -1.96875 C 9.375 -2.703125 8.953125 -2.75 8.34375 -2.75 C 7.875 -2.75 7.40625 -2.671875 6.953125 -2.671875 C 6.625 -2.671875 5.46875 -2.671875 5.46875 -3.15625 C 5.46875 -4.546875 9.359375 -7.65625 9.359375 -9.796875 C 9.359375 -10.234375 9.265625 -10.6875 8.921875 -10.96875 C 8.328125 -11.484375 7.46875 -11.609375 6.71875 -11.609375 C 6.21875 -11.609375 5.71875 -11.578125 5.21875 -11.578125 C 4.46875 -11.578125 2.03125 -11.515625 1.5 -11.078125 C 1.09375 -10.734375 1.0625 -10.28125 1.0625 -9.78125 C 1.0625 -9.1875 1.40625 -9 1.953125 -9 C 2.421875 -9 2.890625 -9.0625 3.375 -9.0625 C 3.6875 -9.0625 4.96875 -9.0625 4.96875 -8.609375 Z M 4.96875 -8.609375 "/></g></g></g><g fill="#334960" fill-opacity="1"><g transform="translate(51.749809, 31.870303)"><g><path d="M 1.453125 0 C 1.410156 0 1.375 -0.0078125 1.34375 -0.03125 C 1.320312 -0.0625 1.3125 -0.0976562 1.3125 -0.140625 L 1.3125 -3.21875 L 0.265625 -3.21875 C 0.222656 -3.21875 0.1875 -3.226562 0.15625 -3.25 C 0.132812 -3.28125 0.125 -3.316406 0.125 -3.359375 L 0.125 -3.875 C 0.125 -3.914062 0.132812 -3.953125 0.15625 -3.984375 C 0.1875 -4.015625 0.222656 -4.03125 0.265625 -4.03125 L 3.28125 -4.03125 C 3.320312 -4.03125 3.351562 -4.015625 3.375 -3.984375 C 3.40625 -3.953125 3.421875 -3.914062 3.421875 -3.875 L 3.421875 -3.359375 C 3.421875 -3.316406 3.40625 -3.28125 3.375 -3.25 C 3.351562 -3.226562 3.320312 -3.21875 3.28125 -3.21875 L 2.234375 -3.21875 L 2.234375 -0.140625 C 2.234375 -0.0976562 2.21875 -0.0625 2.1875 -0.03125 C 2.164062 -0.0078125 2.132812 0 2.09375 0 Z M 1.453125 0 "/></g></g></g><g fill="#334960" fill-opacity="1"><g transform="translate(57.589933, 31.870303)"><g><path d="M 2.03125 0.0625 C 1.675781 0.0625 1.367188 0.00390625 1.109375 -0.109375 C 0.859375 -0.222656 0.660156 -0.394531 0.515625 -0.625 C 0.378906 -0.863281 0.304688 -1.160156 0.296875 -1.515625 C 0.296875 -1.679688 0.296875 -1.84375 0.296875 -2 C 0.296875 -2.164062 0.296875 -2.332031 0.296875 -2.5 C 0.304688 -2.84375 0.382812 -3.128906 0.53125 -3.359375 C 0.675781 -3.597656 0.875 -3.773438 1.125 -3.890625 C 1.382812 -4.015625 1.6875 -4.078125 2.03125 -4.078125 C 2.363281 -4.078125 2.65625 -4.015625 2.90625 -3.890625 C 3.164062 -3.773438 3.367188 -3.597656 3.515625 -3.359375 C 3.660156 -3.128906 3.738281 -2.84375 3.75 -2.5 C 3.757812 -2.332031 3.765625 -2.164062 3.765625 -2 C 3.765625 -1.84375 3.757812 -1.679688 3.75 -1.515625 C 3.738281 -1.160156 3.660156 -0.863281 3.515625 -0.625 C 3.367188 -0.394531 3.171875 -0.222656 2.921875 -0.109375 C 2.671875 0.00390625 2.375 0.0625 2.03125 0.0625 Z M 2.03125 -0.6875 C 2.25 -0.6875 2.425781 -0.753906 2.5625 -0.890625 C 2.707031 -1.023438 2.785156 -1.242188 2.796875 -1.546875 C 2.804688 -1.710938 2.8125 -1.867188 2.8125 -2.015625 C 2.8125 -2.160156 2.804688 -2.316406 2.796875 -2.484375 C 2.796875 -2.679688 2.757812 -2.84375 2.6875 -2.96875 C 2.625 -3.09375 2.535156 -3.179688 2.421875 -3.234375 C 2.304688 -3.296875 2.175781 -3.328125 2.03125 -3.328125 C 1.882812 -3.328125 1.75 -3.296875 1.625 -3.234375 C 1.507812 -3.179688 1.414062 -3.09375 1.34375 -2.96875 C 1.28125 -2.84375 1.242188 -2.679688 1.234375 -2.484375 C 1.234375 -2.316406 1.234375 -2.160156 1.234375 -2.015625 C 1.234375 -1.867188 1.234375 -1.710938 1.234375 -1.546875 C 1.253906 -1.242188 1.332031 -1.023438 1.46875 -0.890625 C 1.613281 -0.753906 1.800781 -0.6875 2.03125 -0.6875 Z M 2.03125 -0.6875 "/></g></g></g><g fill="#334960" fill-opacity="1"><g transform="translate(63.923916, 31.870303)"><g><path d="M 1.609375 0 C 1.566406 0 1.53125 -0.0078125 1.5 -0.03125 C 1.476562 -0.0625 1.46875 -0.0976562 1.46875 -0.140625 L 1.46875 -1.40625 L 0.125 -3.84375 C 0.125 -3.851562 0.117188 -3.863281 0.109375 -3.875 C 0.109375 -3.882812 0.109375 -3.894531 0.109375 -3.90625 C 0.109375 -3.9375 0.117188 -3.960938 0.140625 -3.984375 C 0.171875 -4.015625 0.203125 -4.03125 0.234375 -4.03125 L 0.84375 -4.03125 C 0.894531 -4.03125 0.9375 -4.015625 0.96875 -3.984375 C 1 -3.953125 1.019531 -3.925781 1.03125 -3.90625 L 1.9375 -2.328125 L 2.828125 -3.90625 C 2.847656 -3.925781 2.867188 -3.953125 2.890625 -3.984375 C 2.921875 -4.015625 2.96875 -4.03125 3.03125 -4.03125 L 3.640625 -4.03125 C 3.671875 -4.03125 3.695312 -4.015625 3.71875 -3.984375 C 3.738281 -3.960938 3.75 -3.9375 3.75 -3.90625 C 3.75 -3.894531 3.75 -3.882812 3.75 -3.875 C 3.75 -3.863281 3.742188 -3.851562 3.734375 -3.84375 L 2.390625 -1.40625 L 2.390625 -0.140625 C 2.390625 -0.0976562 2.375 -0.0625 2.34375 -0.03125 C 2.320312 -0.0078125 2.289062 0 2.25 0 Z M 1.609375 0 "/></g></g></g><g fill="#334960" fill-opacity="1"><g transform="translate(70.079878, 31.870303)"><g><path d="M 1.875 0.0625 C 1.507812 0.0625 1.203125 0.0078125 0.953125 -0.09375 C 0.703125 -0.207031 0.515625 -0.347656 0.390625 -0.515625 C 0.265625 -0.691406 0.195312 -0.878906 0.1875 -1.078125 C 0.1875 -1.109375 0.195312 -1.132812 0.21875 -1.15625 C 0.25 -1.1875 0.28125 -1.203125 0.3125 -1.203125 L 0.9375 -1.203125 C 0.976562 -1.203125 1.015625 -1.191406 1.046875 -1.171875 C 1.078125 -1.148438 1.101562 -1.125 1.125 -1.09375 C 1.144531 -1.019531 1.1875 -0.953125 1.25 -0.890625 C 1.3125 -0.835938 1.390625 -0.789062 1.484375 -0.75 C 1.585938 -0.707031 1.71875 -0.6875 1.875 -0.6875 C 2.125 -0.6875 2.3125 -0.726562 2.4375 -0.8125 C 2.5625 -0.894531 2.625 -1.003906 2.625 -1.140625 C 2.625 -1.234375 2.585938 -1.3125 2.515625 -1.375 C 2.453125 -1.4375 2.347656 -1.488281 2.203125 -1.53125 C 2.054688 -1.582031 1.867188 -1.640625 1.640625 -1.703125 C 1.347656 -1.765625 1.097656 -1.84375 0.890625 -1.9375 C 0.691406 -2.039062 0.539062 -2.164062 0.4375 -2.3125 C 0.34375 -2.46875 0.296875 -2.660156 0.296875 -2.890625 C 0.296875 -3.128906 0.359375 -3.335938 0.484375 -3.515625 C 0.609375 -3.691406 0.785156 -3.828125 1.015625 -3.921875 C 1.242188 -4.023438 1.519531 -4.078125 1.84375 -4.078125 C 2.09375 -4.078125 2.316406 -4.039062 2.515625 -3.96875 C 2.710938 -3.90625 2.878906 -3.816406 3.015625 -3.703125 C 3.148438 -3.597656 3.25 -3.476562 3.3125 -3.34375 C 3.382812 -3.21875 3.421875 -3.097656 3.421875 -2.984375 C 3.421875 -2.953125 3.410156 -2.921875 3.390625 -2.890625 C 3.367188 -2.867188 3.34375 -2.859375 3.3125 -2.859375 L 2.65625 -2.859375 C 2.625 -2.859375 2.59375 -2.863281 2.5625 -2.875 C 2.53125 -2.894531 2.503906 -2.925781 2.484375 -2.96875 C 2.460938 -3.0625 2.394531 -3.144531 2.28125 -3.21875 C 2.164062 -3.289062 2.019531 -3.328125 1.84375 -3.328125 C 1.65625 -3.328125 1.503906 -3.296875 1.390625 -3.234375 C 1.285156 -3.171875 1.234375 -3.066406 1.234375 -2.921875 C 1.234375 -2.828125 1.257812 -2.75 1.3125 -2.6875 C 1.375 -2.625 1.46875 -2.566406 1.59375 -2.515625 C 1.726562 -2.472656 1.90625 -2.425781 2.125 -2.375 C 2.457031 -2.300781 2.726562 -2.210938 2.9375 -2.109375 C 3.15625 -2.015625 3.3125 -1.890625 3.40625 -1.734375 C 3.507812 -1.585938 3.5625 -1.398438 3.5625 -1.171875 C 3.5625 -0.910156 3.488281 -0.6875 3.34375 -0.5 C 3.207031 -0.320312 3.007812 -0.179688 2.75 -0.078125 C 2.5 0.015625 2.207031 0.0625 1.875 0.0625 Z M 1.875 0.0625 "/></g></g></g><g fill="#334960" fill-opacity="1"><g transform="translate(76.120987, 31.870303)"><g/></g></g><g fill="#334960" fill-opacity="1"><g transform="translate(79.687076, 31.870303)"><g><path d="M 1.875 0.0625 C 1.507812 0.0625 1.203125 0.0078125 0.953125 -0.09375 C 0.703125 -0.207031 0.515625 -0.347656 0.390625 -0.515625 C 0.265625 -0.691406 0.195312 -0.878906 0.1875 -1.078125 C 0.1875 -1.109375 0.195312 -1.132812 0.21875 -1.15625 C 0.25 -1.1875 0.28125 -1.203125 0.3125 -1.203125 L 0.9375 -1.203125 C 0.976562 -1.203125 1.015625 -1.191406 1.046875 -1.171875 C 1.078125 -1.148438 1.101562 -1.125 1.125 -1.09375 C 1.144531 -1.019531 1.1875 -0.953125 1.25 -0.890625 C 1.3125 -0.835938 1.390625 -0.789062 1.484375 -0.75 C 1.585938 -0.707031 1.71875 -0.6875 1.875 -0.6875 C 2.125 -0.6875 2.3125 -0.726562 2.4375 -0.8125 C 2.5625 -0.894531 2.625 -1.003906 2.625 -1.140625 C 2.625 -1.234375 2.585938 -1.3125 2.515625 -1.375 C 2.453125 -1.4375 2.347656 -1.488281 2.203125 -1.53125 C 2.054688 -1.582031 1.867188 -1.640625 1.640625 -1.703125 C 1.347656 -1.765625 1.097656 -1.84375 0.890625 -1.9375 C 0.691406 -2.039062 0.539062 -2.164062 0.4375 -2.3125 C 0.34375 -2.46875 0.296875 -2.660156 0.296875 -2.890625 C 0.296875 -3.128906 0.359375 -3.335938 0.484375 -3.515625 C 0.609375 -3.691406 0.785156 -3.828125 1.015625 -3.921875 C 1.242188 -4.023438 1.519531 -4.078125 1.84375 -4.078125 C 2.09375 -4.078125 2.316406 -4.039062 2.515625 -3.96875 C 2.710938 -3.90625 2.878906 -3.816406 3.015625 -3.703125 C 3.148438 -3.597656 3.25 -3.476562 3.3125 -3.34375 C 3.382812 -3.21875 3.421875 -3.097656 3.421875 -2.984375 C 3.421875 -2.953125 3.410156 -2.921875 3.390625 -2.890625 C 3.367188 -2.867188 3.34375 -2.859375 3.3125 -2.859375 L 2.65625 -2.859375 C 2.625 -2.859375 2.59375 -2.863281 2.5625 -2.875 C 2.53125 -2.894531 2.503906 -2.925781 2.484375 -2.96875 C 2.460938 -3.0625 2.394531 -3.144531 2.28125 -3.21875 C 2.164062 -3.289062 2.019531 -3.328125 1.84375 -3.328125 C 1.65625 -3.328125 1.503906 -3.296875 1.390625 -3.234375 C 1.285156 -3.171875 1.234375 -3.066406 1.234375 -2.921875 C 1.234375 -2.828125 1.257812 -2.75 1.3125 -2.6875 C 1.375 -2.625 1.46875 -2.566406 1.59375 -2.515625 C 1.726562 -2.472656 1.90625 -2.425781 2.125 -2.375 C 2.457031 -2.300781 2.726562 -2.210938 2.9375 -2.109375 C 3.15625 -2.015625 3.3125 -1.890625 3.40625 -1.734375 C 3.507812 -1.585938 3.5625 -1.398438 3.5625 -1.171875 C 3.5625 -0.910156 3.488281 -0.6875 3.34375 -0.5 C 3.207031 -0.320312 3.007812 -0.179688 2.75 -0.078125 C 2.5 0.015625 2.207031 0.0625 1.875 0.0625 Z M 1.875 0.0625 "/></g></g></g><g fill="#334960" fill-opacity="1"><g transform="translate(85.728187, 31.870303)"><g><path d="M 1.453125 0 C 1.410156 0 1.375 -0.0078125 1.34375 -0.03125 C 1.320312 -0.0625 1.3125 -0.0976562 1.3125 -0.140625 L 1.3125 -3.21875 L 0.265625 -3.21875 C 0.222656 -3.21875 0.1875 -3.226562 0.15625 -3.25 C 0.132812 -3.28125 0.125 -3.316406 0.125 -3.359375 L 0.125 -3.875 C 0.125 -3.914062 0.132812 -3.953125 0.15625 -3.984375 C 0.1875 -4.015625 0.222656 -4.03125 0.265625 -4.03125 L 3.28125 -4.03125 C 3.320312 -4.03125 3.351562 -4.015625 3.375 -3.984375 C 3.40625 -3.953125 3.421875 -3.914062 3.421875 -3.875 L 3.421875 -3.359375 C 3.421875 -3.316406 3.40625 -3.28125 3.375 -3.25 C 3.351562 -3.226562 3.320312 -3.21875 3.28125 -3.21875 L 2.234375 -3.21875 L 2.234375 -0.140625 C 2.234375 -0.0976562 2.21875 -0.0625 2.1875 -0.03125 C 2.164062 -0.0078125 2.132812 0 2.09375 0 Z M 1.453125 0 "/></g></g></g><g fill="#334960" fill-opacity="1"><g transform="translate(91.568313, 31.870303)"><g><path d="M 2.03125 0.0625 C 1.675781 0.0625 1.367188 0.00390625 1.109375 -0.109375 C 0.859375 -0.222656 0.660156 -0.394531 0.515625 -0.625 C 0.378906 -0.863281 0.304688 -1.160156 0.296875 -1.515625 C 0.296875 -1.679688 0.296875 -1.84375 0.296875 -2 C 0.296875 -2.164062 0.296875 -2.332031 0.296875 -2.5 C 0.304688 -2.84375 0.382812 -3.128906 0.53125 -3.359375 C 0.675781 -3.597656 0.875 -3.773438 1.125 -3.890625 C 1.382812 -4.015625 1.6875 -4.078125 2.03125 -4.078125 C 2.363281 -4.078125 2.65625 -4.015625 2.90625 -3.890625 C 3.164062 -3.773438 3.367188 -3.597656 3.515625 -3.359375 C 3.660156 -3.128906 3.738281 -2.84375 3.75 -2.5 C 3.757812 -2.332031 3.765625 -2.164062 3.765625 -2 C 3.765625 -1.84375 3.757812 -1.679688 3.75 -1.515625 C 3.738281 -1.160156 3.660156 -0.863281 3.515625 -0.625 C 3.367188 -0.394531 3.171875 -0.222656 2.921875 -0.109375 C 2.671875 0.00390625 2.375 0.0625 2.03125 0.0625 Z M 2.03125 -0.6875 C 2.25 -0.6875 2.425781 -0.753906 2.5625 -0.890625 C 2.707031 -1.023438 2.785156 -1.242188 2.796875 -1.546875 C 2.804688 -1.710938 2.8125 -1.867188 2.8125 -2.015625 C 2.8125 -2.160156 2.804688 -2.316406 2.796875 -2.484375 C 2.796875 -2.679688 2.757812 -2.84375 2.6875 -2.96875 C 2.625 -3.09375 2.535156 -3.179688 2.421875 -3.234375 C 2.304688 -3.296875 2.175781 -3.328125 2.03125 -3.328125 C 1.882812 -3.328125 1.75 -3.296875 1.625 -3.234375 C 1.507812 -3.179688 1.414062 -3.09375 1.34375 -2.96875 C 1.28125 -2.84375 1.242188 -2.679688 1.234375 -2.484375 C 1.234375 -2.316406 1.234375 -2.160156 1.234375 -2.015625 C 1.234375 -1.867188 1.234375 -1.710938 1.234375 -1.546875 C 1.253906 -1.242188 1.332031 -1.023438 1.46875 -0.890625 C 1.613281 -0.753906 1.800781 -0.6875 2.03125 -0.6875 Z M 2.03125 -0.6875 "/></g></g></g><g fill="#334960" fill-opacity="1"><g transform="translate(97.902297, 31.870303)"><g><path d="M 0.5625 0 C 0.519531 0 0.484375 -0.0078125 0.453125 -0.03125 C 0.429688 -0.0625 0.421875 -0.0976562 0.421875 -0.140625 L 0.421875 -3.875 C 0.421875 -3.914062 0.429688 -3.953125 0.453125 -3.984375 C 0.484375 -4.015625 0.519531 -4.03125 0.5625 -4.03125 L 2.09375 -4.03125 C 2.570312 -4.03125 2.945312 -3.914062 3.21875 -3.6875 C 3.5 -3.46875 3.640625 -3.15625 3.640625 -2.75 C 3.640625 -2.46875 3.570312 -2.234375 3.4375 -2.046875 C 3.300781 -1.859375 3.117188 -1.71875 2.890625 -1.625 L 3.71875 -0.1875 C 3.726562 -0.164062 3.734375 -0.144531 3.734375 -0.125 C 3.734375 -0.09375 3.71875 -0.0625 3.6875 -0.03125 C 3.664062 -0.0078125 3.640625 0 3.609375 0 L 2.96875 0 C 2.894531 0 2.84375 -0.015625 2.8125 -0.046875 C 2.78125 -0.0859375 2.753906 -0.125 2.734375 -0.15625 L 2.03125 -1.46875 L 1.34375 -1.46875 L 1.34375 -0.140625 C 1.34375 -0.0976562 1.328125 -0.0625 1.296875 -0.03125 C 1.273438 -0.0078125 1.242188 0 1.203125 0 Z M 1.34375 -2.203125 L 2.078125 -2.203125 C 2.285156 -2.203125 2.441406 -2.25 2.546875 -2.34375 C 2.648438 -2.4375 2.703125 -2.570312 2.703125 -2.75 C 2.703125 -2.914062 2.648438 -3.050781 2.546875 -3.15625 C 2.441406 -3.257812 2.285156 -3.3125 2.078125 -3.3125 L 1.34375 -3.3125 Z M 1.34375 -2.203125 "/></g></g></g><g fill="#334960" fill-opacity="1"><g transform="translate(104.115683, 31.870303)"><g><path d="M 0.5625 0 C 0.519531 0 0.484375 -0.0078125 0.453125 -0.03125 C 0.429688 -0.0625 0.421875 -0.0976562 0.421875 -0.140625 L 0.421875 -3.875 C 0.421875 -3.914062 0.429688 -3.953125 0.453125 -3.984375 C 0.484375 -4.015625 0.519531 -4.03125 0.5625 -4.03125 L 3.171875 -4.03125 C 3.210938 -4.03125 3.242188 -4.015625 3.265625 -3.984375 C 3.296875 -3.953125 3.3125 -3.914062 3.3125 -3.875 L 3.3125 -3.421875 C 3.3125 -3.378906 3.296875 -3.34375 3.265625 -3.3125 C 3.242188 -3.289062 3.210938 -3.28125 3.171875 -3.28125 L 1.3125 -3.28125 L 1.3125 -2.375 L 3.046875 -2.375 C 3.085938 -2.375 3.117188 -2.359375 3.140625 -2.328125 C 3.171875 -2.304688 3.1875 -2.273438 3.1875 -2.234375 L 3.1875 -1.8125 C 3.1875 -1.769531 3.171875 -1.734375 3.140625 -1.703125 C 3.117188 -1.679688 3.085938 -1.671875 3.046875 -1.671875 L 1.3125 -1.671875 L 1.3125 -0.75 L 3.21875 -0.75 C 3.257812 -0.75 3.289062 -0.734375 3.3125 -0.703125 C 3.34375 -0.679688 3.359375 -0.648438 3.359375 -0.609375 L 3.359375 -0.140625 C 3.359375 -0.0976562 3.34375 -0.0625 3.3125 -0.03125 C 3.289062 -0.0078125 3.257812 0 3.21875 0 Z M 0.5625 0 "/></g></g></g></svg>